<svg width="500" height="500" viewBox="0 0 500 500" fill="none" xmlns="http://www.w3.org/2000/svg">
<rect x="42" y="42" width="416" height="416" rx="10" fill="#696969"/>
<rect opacity="0.5" x="313" y="289" width="112" height="52" rx="4" fill="#D9D9D9"/>
<path d="M348.148 310.364H350.727L354.182 318.795H354.318L357.773 310.364H360.352V322H358.33V314.006H358.222L355.006 321.966H353.494L350.278 313.989H350.17V322H348.148V310.364ZM362.648 310.364H365.227L368.682 318.795H368.818L372.273 310.364H374.852V322H372.83V314.006H372.722L369.506 321.966H367.994L364.778 313.989H364.67V322H362.648V310.364ZM384.483 310.364H386.591V317.966C386.591 318.799 386.394 319.532 386 320.165C385.61 320.797 385.061 321.292 384.352 321.648C383.644 322 382.816 322.176 381.869 322.176C380.919 322.176 380.089 322 379.381 321.648C378.672 321.292 378.123 320.797 377.733 320.165C377.343 319.532 377.148 318.799 377.148 317.966V310.364H379.256V317.79C379.256 318.275 379.362 318.706 379.574 319.085C379.79 319.464 380.093 319.761 380.483 319.977C380.873 320.189 381.335 320.295 381.869 320.295C382.403 320.295 382.866 320.189 383.256 319.977C383.65 319.761 383.953 319.464 384.165 319.085C384.377 318.706 384.483 318.275 384.483 317.79V310.364Z" fill="white"/>
<line x1="250.5" y1="42" x2="250.5" stroke="#575757" stroke-width="5"/>
<line x1="293.5" y1="42" x2="293.5" stroke="#575757" stroke-width="5"/>
<line x1="202.5" y1="42" x2="202.5" stroke="#575757" stroke-width="5"/>
<line x1="153.5" y1="42" x2="153.5" stroke="#575757" stroke-width="5"/>
<line x1="344.5" y1="42" x2="344.5" stroke="#575757" stroke-width="5"/>
<line x1="370.5" y1="42" x2="370.5" y2="14" stroke="#575757" stroke-width="5"/>
<line x1="122.5" y1="42" x2="122.5" y2="14" stroke="#575757" stroke-width="5"/>
<line x1="179.5" y1="42" x2="179.5" y2="14" stroke="#575757" stroke-width="5"/>
<line x1="227.5" y1="42" x2="227.5" y2="14" stroke="#575757" stroke-width="5"/>
<line x1="272.5" y1="42" x2="272.5" y2="14" stroke="#575757" stroke-width="5"/>
<line x1="319.5" y1="42" x2="319.5" y2="14" stroke="#575757" stroke-width="5"/>
<path d="M458 250H500M458 297.6H500M458 202.4H500M458 154.8H500M458 345.2H500M458 369H486M458 131H486M458 178.6H486M458 226.2H486M458 273.8H486M458 321.4H486" stroke="#575757" stroke-width="5"/>
<path d="M250 458V500M202.4 458V500M297.6 458V500M345.2 458V500M154.8 458V500M131 458V486M369 458V486M321.4 458V486M273.8 458V486M226.2 458V486M178.6 458V486" stroke="#575757" stroke-width="5"/>
<path d="M42 250H0M42 202.4H0M42 297.6H0M42 345.2H0M42 154.8H0M42 131H14M42 369H14M42 321.4H14M42 273.8H14M42 226.2H14M42 178.6H14" stroke="#575757" stroke-width="5"/>
<rect x="70" y="71" width="198" height="60" rx="4" fill="#D9D9D9" fill-opacity="0.5"/>
<rect x="161" y="390" width="178" height="54" rx="4" fill="#D9D9D9" fill-opacity="0.5"/>
<rect x="70" y="289" width="112" height="52" rx="4" fill="#D9D9D9" fill-opacity="0.5"/>
<path d="M131.148 107V95.3636H135.511C136.405 95.3636 137.155 95.5189 137.761 95.8295C138.371 96.1402 138.831 96.5758 139.142 97.1364C139.456 97.6932 139.614 98.3428 139.614 99.0852C139.614 99.8314 139.455 100.479 139.136 101.028C138.822 101.574 138.358 101.996 137.744 102.295C137.131 102.591 136.377 102.739 135.483 102.739H132.375V100.989H135.199C135.722 100.989 136.15 100.917 136.483 100.773C136.816 100.625 137.063 100.411 137.222 100.131C137.384 99.8466 137.466 99.4981 137.466 99.0852C137.466 98.6723 137.384 98.3201 137.222 98.0284C137.059 97.733 136.811 97.5095 136.477 97.358C136.144 97.2027 135.714 97.125 135.188 97.125H133.256V107H131.148ZM137.159 101.727L140.04 107H137.688L134.858 101.727H137.159ZM145.202 107.17C144.327 107.17 143.571 106.989 142.935 106.625C142.302 106.258 141.815 105.739 141.474 105.068C141.134 104.394 140.963 103.6 140.963 102.688C140.963 101.79 141.134 101.002 141.474 100.324C141.819 99.642 142.3 99.1117 142.918 98.733C143.535 98.3504 144.26 98.1591 145.094 98.1591C145.632 98.1591 146.139 98.2462 146.616 98.4205C147.098 98.5909 147.522 98.8561 147.889 99.2159C148.26 99.5758 148.552 100.034 148.764 100.591C148.976 101.144 149.082 101.803 149.082 102.568V103.199H141.929V101.812H147.111C147.107 101.419 147.022 101.068 146.855 100.761C146.688 100.451 146.455 100.206 146.156 100.028C145.861 99.8504 145.516 99.7614 145.122 99.7614C144.702 99.7614 144.332 99.8636 144.014 100.068C143.696 100.269 143.448 100.534 143.27 100.864C143.096 101.189 143.007 101.547 143.003 101.938V103.148C143.003 103.655 143.096 104.091 143.281 104.455C143.467 104.814 143.726 105.091 144.06 105.284C144.393 105.473 144.783 105.568 145.23 105.568C145.529 105.568 145.8 105.527 146.043 105.443C146.285 105.356 146.495 105.229 146.673 105.062C146.851 104.896 146.986 104.689 147.077 104.443L148.997 104.659C148.876 105.167 148.645 105.61 148.304 105.989C147.967 106.364 147.535 106.655 147.009 106.864C146.482 107.068 145.88 107.17 145.202 107.17ZM154.618 110.455C153.879 110.455 153.245 110.354 152.714 110.153C152.184 109.956 151.758 109.691 151.436 109.358C151.114 109.025 150.891 108.655 150.766 108.25L152.618 107.801C152.701 107.972 152.822 108.14 152.982 108.307C153.141 108.477 153.355 108.617 153.624 108.727C153.896 108.841 154.239 108.898 154.652 108.898C155.235 108.898 155.718 108.756 156.101 108.472C156.483 108.191 156.675 107.729 156.675 107.085V105.432H156.572C156.466 105.644 156.311 105.862 156.107 106.085C155.906 106.309 155.639 106.496 155.305 106.648C154.976 106.799 154.561 106.875 154.061 106.875C153.391 106.875 152.783 106.718 152.237 106.403C151.696 106.085 151.264 105.612 150.942 104.983C150.624 104.35 150.464 103.559 150.464 102.608C150.464 101.65 150.624 100.841 150.942 100.182C151.264 99.5189 151.697 99.017 152.243 98.6761C152.788 98.3314 153.396 98.1591 154.067 98.1591C154.578 98.1591 154.999 98.2462 155.328 98.4205C155.661 98.5909 155.927 98.7973 156.124 99.0398C156.321 99.2784 156.47 99.5038 156.572 99.7159H156.686V98.2727H158.714V107.142C158.714 107.888 158.536 108.506 158.18 108.994C157.824 109.483 157.338 109.848 156.72 110.091C156.103 110.333 155.402 110.455 154.618 110.455ZM154.635 105.261C155.071 105.261 155.442 105.155 155.749 104.943C156.055 104.731 156.288 104.426 156.447 104.028C156.607 103.631 156.686 103.153 156.686 102.597C156.686 102.047 156.607 101.566 156.447 101.153C156.292 100.741 156.061 100.42 155.754 100.193C155.451 99.9621 155.078 99.8466 154.635 99.8466C154.177 99.8466 153.794 99.9659 153.487 100.205C153.18 100.443 152.949 100.771 152.794 101.188C152.639 101.6 152.561 102.07 152.561 102.597C152.561 103.131 152.639 103.598 152.794 104C152.953 104.398 153.186 104.708 153.493 104.932C153.804 105.152 154.184 105.261 154.635 105.261ZM160.822 107V98.2727H162.879V107H160.822ZM161.857 97.0341C161.531 97.0341 161.25 96.9261 161.016 96.7102C160.781 96.4905 160.663 96.2273 160.663 95.9205C160.663 95.6098 160.781 95.3466 161.016 95.1307C161.25 94.911 161.531 94.8011 161.857 94.8011C162.186 94.8011 162.466 94.911 162.697 95.1307C162.932 95.3466 163.05 95.6098 163.05 95.9205C163.05 96.2273 162.932 96.4905 162.697 96.7102C162.466 96.9261 162.186 97.0341 161.857 97.0341ZM171.892 100.58L170.017 100.784C169.964 100.595 169.871 100.417 169.739 100.25C169.61 100.083 169.436 99.9489 169.216 99.8466C168.996 99.7443 168.727 99.6932 168.409 99.6932C167.981 99.6932 167.621 99.786 167.33 99.9716C167.042 100.157 166.9 100.398 166.903 100.693C166.9 100.947 166.992 101.153 167.182 101.312C167.375 101.472 167.693 101.602 168.136 101.705L169.625 102.023C170.451 102.201 171.064 102.483 171.466 102.869C171.871 103.256 172.076 103.761 172.08 104.386C172.076 104.936 171.915 105.42 171.597 105.841C171.282 106.258 170.845 106.583 170.284 106.818C169.723 107.053 169.08 107.17 168.352 107.17C167.284 107.17 166.424 106.947 165.773 106.5C165.121 106.049 164.733 105.422 164.608 104.619L166.614 104.426C166.705 104.82 166.898 105.117 167.193 105.318C167.489 105.519 167.873 105.619 168.347 105.619C168.835 105.619 169.227 105.519 169.523 105.318C169.822 105.117 169.972 104.869 169.972 104.574C169.972 104.324 169.875 104.117 169.682 103.955C169.492 103.792 169.197 103.667 168.795 103.58L167.307 103.267C166.47 103.093 165.85 102.799 165.449 102.386C165.047 101.97 164.848 101.443 164.852 100.807C164.848 100.269 164.994 99.803 165.29 99.4091C165.589 99.0114 166.004 98.7045 166.534 98.4886C167.068 98.2689 167.684 98.1591 168.381 98.1591C169.403 98.1591 170.208 98.3769 170.795 98.8125C171.386 99.2481 171.752 99.8371 171.892 100.58ZM178.134 98.2727V99.8636H173.116V98.2727H178.134ZM174.355 96.1818H176.412V104.375C176.412 104.652 176.454 104.864 176.537 105.011C176.624 105.155 176.738 105.254 176.878 105.307C177.018 105.36 177.173 105.386 177.344 105.386C177.473 105.386 177.59 105.377 177.696 105.358C177.806 105.339 177.889 105.322 177.946 105.307L178.293 106.915C178.183 106.953 178.026 106.994 177.821 107.04C177.62 107.085 177.374 107.112 177.082 107.119C176.567 107.134 176.103 107.057 175.69 106.886C175.277 106.712 174.95 106.443 174.707 106.08C174.469 105.716 174.351 105.261 174.355 104.716V96.1818ZM183.624 107.17C182.749 107.17 181.993 106.989 181.357 106.625C180.724 106.258 180.237 105.739 179.896 105.068C179.555 104.394 179.385 103.6 179.385 102.688C179.385 101.79 179.555 101.002 179.896 100.324C180.241 99.642 180.722 99.1117 181.339 98.733C181.957 98.3504 182.682 98.1591 183.516 98.1591C184.054 98.1591 184.561 98.2462 185.038 98.4205C185.519 98.5909 185.944 98.8561 186.311 99.2159C186.682 99.5758 186.974 100.034 187.186 100.591C187.398 101.144 187.504 101.803 187.504 102.568V103.199H180.351V101.812H185.533C185.529 101.419 185.444 101.068 185.277 100.761C185.11 100.451 184.877 100.206 184.578 100.028C184.283 99.8504 183.938 99.7614 183.544 99.7614C183.124 99.7614 182.754 99.8636 182.436 100.068C182.118 100.269 181.87 100.534 181.692 100.864C181.518 101.189 181.429 101.547 181.425 101.938V103.148C181.425 103.655 181.518 104.091 181.703 104.455C181.889 104.814 182.148 105.091 182.482 105.284C182.815 105.473 183.205 105.568 183.652 105.568C183.951 105.568 184.222 105.527 184.464 105.443C184.707 105.356 184.917 105.229 185.095 105.062C185.273 104.896 185.408 104.689 185.499 104.443L187.419 104.659C187.298 105.167 187.067 105.61 186.726 105.989C186.389 106.364 185.957 106.655 185.43 106.864C184.904 107.068 184.302 107.17 183.624 107.17ZM189.244 107V98.2727H191.239V99.7273H191.33C191.489 99.2235 191.761 98.8352 192.148 98.5625C192.538 98.286 192.983 98.1477 193.483 98.1477C193.597 98.1477 193.723 98.1534 193.864 98.1648C194.008 98.1723 194.127 98.1856 194.222 98.2045V100.097C194.134 100.066 193.996 100.04 193.807 100.017C193.621 99.9905 193.441 99.9773 193.267 99.9773C192.892 99.9773 192.555 100.059 192.256 100.222C191.96 100.381 191.727 100.602 191.557 100.886C191.386 101.17 191.301 101.498 191.301 101.869V107H189.244ZM202.486 100.58L200.611 100.784C200.558 100.595 200.465 100.417 200.332 100.25C200.204 100.083 200.029 99.9489 199.81 99.8466C199.59 99.7443 199.321 99.6932 199.003 99.6932C198.575 99.6932 198.215 99.786 197.923 99.9716C197.635 100.157 197.493 100.398 197.497 100.693C197.493 100.947 197.586 101.153 197.776 101.312C197.969 101.472 198.287 101.602 198.73 101.705L200.219 102.023C201.045 102.201 201.658 102.483 202.06 102.869C202.465 103.256 202.67 103.761 202.673 104.386C202.67 104.936 202.509 105.42 202.19 105.841C201.876 106.258 201.438 106.583 200.878 106.818C200.317 107.053 199.673 107.17 198.946 107.17C197.878 107.17 197.018 106.947 196.366 106.5C195.715 106.049 195.327 105.422 195.202 104.619L197.207 104.426C197.298 104.82 197.491 105.117 197.787 105.318C198.082 105.519 198.467 105.619 198.94 105.619C199.429 105.619 199.821 105.519 200.116 105.318C200.416 105.117 200.565 104.869 200.565 104.574C200.565 104.324 200.469 104.117 200.276 103.955C200.086 103.792 199.791 103.667 199.389 103.58L197.901 103.267C197.063 103.093 196.444 102.799 196.043 102.386C195.641 101.97 195.442 101.443 195.446 100.807C195.442 100.269 195.588 99.803 195.884 99.4091C196.183 99.0114 196.598 98.7045 197.128 98.4886C197.662 98.2689 198.277 98.1591 198.974 98.1591C199.997 98.1591 200.802 98.3769 201.389 98.8125C201.98 99.2481 202.346 99.8371 202.486 100.58Z" fill="white"/>
<path d="M110.642 322H108.392L112.489 310.364H115.091L119.193 322H116.943L113.835 312.75H113.744L110.642 322ZM110.716 317.438H116.852V319.131H110.716V317.438ZM120.726 322V310.364H122.834V320.233H127.959V322H120.726ZM137.124 310.364H139.232V317.966C139.232 318.799 139.035 319.532 138.641 320.165C138.25 320.797 137.701 321.292 136.993 321.648C136.285 322 135.457 322.176 134.51 322.176C133.559 322.176 132.73 322 132.021 321.648C131.313 321.292 130.764 320.797 130.374 320.165C129.983 319.532 129.788 318.799 129.788 317.966V310.364H131.896V317.79C131.896 318.275 132.002 318.706 132.214 319.085C132.43 319.464 132.733 319.761 133.124 319.977C133.514 320.189 133.976 320.295 134.51 320.295C135.044 320.295 135.506 320.189 135.896 319.977C136.29 319.761 136.593 319.464 136.805 319.085C137.018 318.706 137.124 318.275 137.124 317.79V310.364Z" fill="white"/>
<path d="M236.108 415.29H233.983C233.922 414.941 233.811 414.633 233.648 414.364C233.485 414.091 233.282 413.86 233.04 413.67C232.797 413.481 232.521 413.339 232.21 413.244C231.903 413.146 231.572 413.097 231.216 413.097C230.583 413.097 230.023 413.256 229.534 413.574C229.045 413.888 228.663 414.35 228.386 414.96C228.11 415.566 227.972 416.307 227.972 417.182C227.972 418.072 228.11 418.822 228.386 419.432C228.667 420.038 229.049 420.496 229.534 420.807C230.023 421.114 230.581 421.267 231.21 421.267C231.559 421.267 231.884 421.222 232.188 421.131C232.494 421.036 232.769 420.898 233.011 420.716C233.258 420.534 233.464 420.311 233.631 420.045C233.801 419.78 233.919 419.477 233.983 419.136L236.108 419.148C236.028 419.701 235.856 420.22 235.591 420.705C235.33 421.189 234.987 421.617 234.562 421.989C234.138 422.356 233.642 422.644 233.074 422.852C232.506 423.057 231.875 423.159 231.182 423.159C230.159 423.159 229.246 422.922 228.443 422.449C227.64 421.975 227.008 421.292 226.545 420.398C226.083 419.504 225.852 418.432 225.852 417.182C225.852 415.928 226.085 414.856 226.551 413.966C227.017 413.072 227.652 412.388 228.455 411.915C229.258 411.441 230.167 411.205 231.182 411.205C231.83 411.205 232.432 411.295 232.989 411.477C233.545 411.659 234.042 411.926 234.477 412.278C234.913 412.627 235.271 413.055 235.551 413.562C235.835 414.066 236.021 414.642 236.108 415.29ZM240.459 423.176C239.906 423.176 239.408 423.078 238.964 422.881C238.525 422.68 238.177 422.384 237.919 421.994C237.665 421.604 237.538 421.123 237.538 420.551C237.538 420.059 237.629 419.652 237.811 419.33C237.993 419.008 238.241 418.75 238.555 418.557C238.87 418.364 239.224 418.218 239.618 418.119C240.016 418.017 240.427 417.943 240.851 417.898C241.362 417.845 241.777 417.797 242.095 417.756C242.413 417.71 242.644 417.642 242.788 417.551C242.936 417.456 243.01 417.311 243.01 417.114V417.08C243.01 416.652 242.883 416.32 242.629 416.085C242.375 415.85 242.01 415.733 241.533 415.733C241.029 415.733 240.629 415.843 240.334 416.062C240.042 416.282 239.845 416.542 239.743 416.841L237.822 416.568C237.974 416.038 238.224 415.595 238.572 415.239C238.921 414.879 239.347 414.61 239.851 414.432C240.355 414.25 240.911 414.159 241.521 414.159C241.942 414.159 242.36 414.208 242.777 414.307C243.194 414.405 243.574 414.568 243.919 414.795C244.264 415.019 244.54 415.324 244.749 415.71C244.961 416.097 245.067 416.58 245.067 417.159V423H243.089V421.801H243.021C242.896 422.044 242.72 422.271 242.493 422.483C242.269 422.691 241.987 422.86 241.646 422.989C241.309 423.114 240.913 423.176 240.459 423.176ZM240.993 421.665C241.406 421.665 241.764 421.583 242.067 421.42C242.37 421.254 242.603 421.034 242.766 420.761C242.932 420.489 243.016 420.191 243.016 419.869V418.841C242.951 418.894 242.841 418.943 242.686 418.989C242.535 419.034 242.364 419.074 242.175 419.108C241.985 419.142 241.798 419.172 241.612 419.199C241.427 419.225 241.266 419.248 241.129 419.267C240.822 419.309 240.548 419.377 240.305 419.472C240.063 419.566 239.872 419.699 239.732 419.869C239.591 420.036 239.521 420.252 239.521 420.517C239.521 420.896 239.66 421.182 239.936 421.375C240.213 421.568 240.565 421.665 240.993 421.665ZM250.942 423.17C250.071 423.17 249.322 422.979 248.697 422.597C248.076 422.214 247.597 421.686 247.26 421.011C246.927 420.333 246.76 419.553 246.76 418.67C246.76 417.784 246.93 417.002 247.271 416.324C247.612 415.642 248.093 415.112 248.714 414.733C249.339 414.35 250.078 414.159 250.93 414.159C251.639 414.159 252.266 414.29 252.811 414.551C253.36 414.809 253.798 415.174 254.124 415.648C254.449 416.117 254.635 416.667 254.68 417.295H252.714C252.635 416.875 252.446 416.525 252.146 416.244C251.851 415.96 251.455 415.818 250.959 415.818C250.538 415.818 250.169 415.932 249.851 416.159C249.533 416.383 249.285 416.705 249.107 417.125C248.932 417.545 248.845 418.049 248.845 418.636C248.845 419.231 248.932 419.742 249.107 420.17C249.281 420.595 249.525 420.922 249.839 421.153C250.158 421.381 250.531 421.494 250.959 421.494C251.262 421.494 251.533 421.437 251.771 421.324C252.014 421.206 252.216 421.038 252.379 420.818C252.542 420.598 252.654 420.331 252.714 420.017H254.68C254.631 420.634 254.449 421.182 254.135 421.659C253.821 422.133 253.393 422.504 252.851 422.773C252.309 423.038 251.673 423.17 250.942 423.17ZM258.426 417.886V423H256.369V411.364H258.381V415.756H258.483C258.688 415.263 259.004 414.875 259.432 414.591C259.864 414.303 260.413 414.159 261.08 414.159C261.686 414.159 262.214 414.286 262.665 414.54C263.116 414.794 263.464 415.165 263.71 415.653C263.96 416.142 264.085 416.739 264.085 417.443V423H262.028V417.761C262.028 417.174 261.877 416.718 261.574 416.392C261.275 416.062 260.854 415.898 260.312 415.898C259.949 415.898 259.623 415.977 259.335 416.136C259.051 416.292 258.828 416.517 258.665 416.812C258.506 417.108 258.426 417.466 258.426 417.886ZM270.045 423.17C269.17 423.17 268.415 422.989 267.778 422.625C267.146 422.258 266.659 421.739 266.318 421.068C265.977 420.394 265.807 419.6 265.807 418.688C265.807 417.79 265.977 417.002 266.318 416.324C266.663 415.642 267.144 415.112 267.761 414.733C268.379 414.35 269.104 414.159 269.938 414.159C270.475 414.159 270.983 414.246 271.46 414.42C271.941 414.591 272.366 414.856 272.733 415.216C273.104 415.576 273.396 416.034 273.608 416.591C273.82 417.144 273.926 417.803 273.926 418.568V419.199H266.773V417.812H271.955C271.951 417.419 271.866 417.068 271.699 416.761C271.532 416.451 271.299 416.206 271 416.028C270.705 415.85 270.36 415.761 269.966 415.761C269.545 415.761 269.176 415.864 268.858 416.068C268.54 416.269 268.292 416.534 268.114 416.864C267.939 417.189 267.85 417.547 267.847 417.938V419.148C267.847 419.655 267.939 420.091 268.125 420.455C268.311 420.814 268.57 421.091 268.903 421.284C269.237 421.473 269.627 421.568 270.074 421.568C270.373 421.568 270.644 421.527 270.886 421.443C271.129 421.356 271.339 421.229 271.517 421.062C271.695 420.896 271.83 420.689 271.92 420.443L273.841 420.659C273.72 421.167 273.489 421.61 273.148 421.989C272.811 422.364 272.379 422.655 271.852 422.864C271.326 423.068 270.723 423.17 270.045 423.17Z" fill="white"/>
</svg>
